<svg id="Layer_1" enable-background="new 0 0 510 510" height="512" viewBox="0 0 510 510" width="512" xmlns="http://www.w3.org/2000/svg"><g><path d="m480 135c0-49.626-40.374-90-90-90h-51.972l-30-45h-106.056l-29.999 45h-51.973c-49.626 0-90 40.374-90 90v240h75v135h300v-135h75zm-261.972-105h73.944l19.372 29.058-55.969 67.962-56.682-68.019zm-158.028 315v-210c0-33.084 26.916-60 60-60h52.974l62.991 75.589-100.965 122.601v-138.19h-30v210zm75 135v-150h68.072c-5.123 8.832-8.072 19.075-8.072 30v60h30v-60c0-16.542 13.458-30 30-30s30 13.458 30 30v60h30v-60c0-10.925-2.949-21.168-8.072-30h68.072v150zm315-135h-45v-210h-30v165h-223.215l185.294-225h52.921c33.084 0 60 26.916 60 60z"/></g></svg>