<svg id="Layer_1" enable-background="new 0 0 510 510" height="512" viewBox="0 0 510 510" width="512" xmlns="http://www.w3.org/2000/svg"><g><path d="m201.972 0c-9.533 14.299-20.467 30.701-30 45h-.01-.011l31.101 51.95 51.1 51.949c.081-.1.929-1.15.848-1.05l10-73.925-10-73.924c-16.864 0-36.163 0-53.028 0z" fill="#666d9e"/><path d="m338.027 45c-9.533-14.299-20.467-30.701-30-45-16.864 0-36.163 0-53.027 0v147.85l51.534-51.425 31.533-51.425h-.02z" fill="#4f5789"/><path d="m105 46.257c-42.511 7.163-75 44.227-75 88.743v240h75l10-164.371z" fill="#e2dff4"/><path d="m254.152 148.899-77.74 77.983-71.412 103.118v180h150l10-181.075-10-181.075c-.081.099-.929 1.15-.848 1.049z" fill="#e2dff4"/><path d="m171.951 45h-51.951c-5.11 0-10.12.435-15 1.257v253.743l13.941 10 13.173-10 122.037-151.101z" fill="#f9f9f9"/><path d="m405 46.257-10 164.372 10 164.371h75c0-6.772 0-233.232 0-240 0-44.506-32.479-81.579-75-88.743z" fill="#e2dff4"/><path d="m405 330-10-15 10-15c0-11.38 0-243.183 0-253.743-4.785-.807-9.796-1.257-15-1.257-16.508 0-35.425 0-51.933 0-10.121 12.532-72.953 90.327-83.067 102.85v362.15h150c0-18.508 0-160.935 0-180z" fill="#bebcdd"/><path d="m105 300v30h150l10-15-10-15c-10.128 0-139.871 0-150 0z" fill="#ff6b6b"/><path d="m405 300c-10.128 0-139.871 0-150 0v30h150c0-10.492 0-19.508 0-30z" fill="#ff3d7d"/><path d="m225 420h-30v-60c0-33.084 26.916-60 60-60l10 16.294-10 13.706c-16.542 0-30 13.458-30 30z" fill="#ff3d7d"/><path d="m285 360v60h30c0-7.259 0-52.693 0-60 0-33.083-26.915-60-60-60v30c8.271 0 15.771 3.364 21.203 8.797 5.433 5.431 8.797 12.931 8.797 21.203z" fill="#c1126b"/></g></svg>